<?xml version="1.0" standalone="no"?>
<!DOCTYPE svg PUBLIC "-//W3C//DTD SVG 20010904//EN"
 "http://www.w3.org/TR/2001/REC-SVG-20010904/DTD/svg10.dtd">
<svg version="1.0" xmlns="http://www.w3.org/2000/svg"
 width="288.000000pt" height="288.000000pt" viewBox="0 0 288.000000 288.000000"
 preserveAspectRatio="xMidYMid meet">
<metadata>
Created by potrace 1.11, written by Peter Selinger 2001-2013
</metadata>
<g transform="translate(0.000000,288.000000) scale(0.100000,-0.100000)"
fill="#000000" stroke="none">
<path d="M1556 2538 c-13 -29 -54 -129 -91 -223 -36 -93 -73 -185 -81 -202 -8
-18 -21 -50 -28 -70 -8 -21 -21 -54 -29 -74 l-16 -35 70 -140 c38 -76 69 -144
69 -150 0 -26 -74 -68 -488 -274 -295 -146 -434 -221 -438 -233 -4 -12 1 -26
12 -38 18 -17 26 -16 234 26 118 25 226 47 240 49 55 10 276 57 293 62 10 3
38 47 63 97 26 51 48 94 51 97 12 12 41 -42 38 -70 -2 -16 -7 -65 -10 -110 -3
-44 -8 -88 -9 -97 -2 -10 -7 -58 -10 -108 -4 -49 -9 -101 -11 -115 -2 -14 -7
-61 -10 -105 -5 -77 -12 -152 -20 -225 -2 -19 -7 -75 -11 -125 -4 -49 -8 -97
-10 -105 -1 -8 -3 -22 -3 -30 -1 -14 -47 -15 -378 -15 -208 0 -385 -1 -394 -3
-10 -2 -15 -16 -16 -42 l-1 -38 989 0 c544 0 989 3 990 6 5 40 4 53 -2 64 -6
10 -92 13 -381 14 -431 1 -405 0 -405 17 0 21 -14 180 -18 217 -3 19 -7 68
-10 109 -3 41 -7 90 -10 110 -2 20 -7 68 -10 106 -6 69 -10 119 -20 220 -3 28
-7 75 -10 105 -2 30 -7 83 -11 118 l-6 64 40 -21 c22 -11 96 -47 164 -80 68
-32 224 -108 348 -168 261 -127 250 -123 273 -111 43 22 32 38 -233 338 -95
108 -144 164 -172 198 l-28 33 -167 1 -167 1 -39 41 -39 41 -2 450 c0 248 -5
456 -9 463 -5 6 -19 12 -33 12 -21 0 -29 -9 -48 -52z"/>
<path d="M2198 2456 c-10 -7 -18 -20 -18 -28 0 -28 28 -40 96 -42 59 -2 70 -6
91 -30 31 -36 29 -71 -5 -106 l-28 -28 -265 0 c-145 0 -272 -1 -281 -1 -14 -1
-18 -10 -18 -41 l0 -40 285 0 c310 0 318 1 372 58 72 75 48 203 -46 252 -47
24 -155 27 -183 6z"/>
<path d="M945 2219 c-85 -10 -115 -29 -149 -96 -21 -41 -20 -95 0 -136 36 -70
92 -97 199 -97 l75 0 0 40 c0 22 -3 41 -7 41 -5 1 -38 2 -74 3 -42 2 -76 8
-92 18 -27 18 -42 70 -27 97 22 43 37 46 234 51 l191 5 0 38 c0 33 -3 37 -25
38 -149 4 -284 3 -325 -2z"/>
<path d="M1770 1974 l0 -42 137 -1 c152 -2 177 -9 188 -59 8 -39 -10 -80 -40
-92 -15 -6 -50 -10 -78 -10 -59 0 -71 -6 -81 -37 -11 -34 22 -50 96 -47 91 3
129 22 167 84 42 70 18 171 -54 219 -34 23 -46 24 -186 26 l-149 2 0 -43z"/>
<path d="M375 1913 c-96 -52 -118 -174 -46 -257 42 -47 61 -50 334 -52 181 -1
257 2 258 10 1 6 2 25 2 41 l1 30 -252 0 c-251 1 -251 1 -277 25 -58 54 -16
140 68 140 50 0 70 16 65 52 -3 21 -9 23 -63 25 -40 2 -70 -3 -90 -14z"/>
<path d="M2402 1798 c-24 -24 -4 -70 32 -74 6 0 16 -2 23 -2 24 -3 53 -46 53
-78 0 -41 -42 -84 -81 -84 -22 0 -30 -6 -35 -25 -14 -54 38 -70 111 -35 93 45
118 177 47 254 -45 48 -123 71 -150 44z"/>
</g>
</svg>
